<mxfile host="app.diagrams.net" agent="Mozilla/5.0 (Windows NT 10.0; Win64; x64; rv:130.0) Gecko/20100101 Firefox/130.0" version="24.7.16">
  <diagram id="prtHgNgQTEPvFCAcTncT" name="Page-1">
    <mxGraphModel dx="1279" dy="524" grid="1" gridSize="10" guides="1" tooltips="1" connect="1" arrows="1" fold="1" page="1" pageScale="1" pageWidth="827" pageHeight="1169" math="0" shadow="0">
      <root>
        <mxCell id="0" />
        <mxCell id="1" parent="0" />
        <mxCell id="dNxyNK7c78bLwvsdeMH5-19" value="AS-IS ABC Company Process" style="swimlane;html=1;childLayout=stackLayout;resizeParent=1;resizeParentMax=0;horizontal=0;startSize=20;horizontalStack=0;fillColor=#f8cecc;strokeColor=#b85450;" parent="1" vertex="1">
          <mxGeometry x="60" y="160" width="720" height="600" as="geometry" />
        </mxCell>
        <mxCell id="dNxyNK7c78bLwvsdeMH5-27" value="" style="edgeStyle=orthogonalEdgeStyle;rounded=0;orthogonalLoop=1;jettySize=auto;html=1;dashed=1;endArrow=none;endFill=0;" parent="dNxyNK7c78bLwvsdeMH5-19" edge="1">
          <mxGeometry relative="1" as="geometry">
            <mxPoint x="180" y="90" as="sourcePoint" />
            <mxPoint x="180" y="150" as="targetPoint" />
          </mxGeometry>
        </mxCell>
        <mxCell id="dNxyNK7c78bLwvsdeMH5-31" style="edgeStyle=orthogonalEdgeStyle;rounded=0;orthogonalLoop=1;jettySize=auto;html=1;endArrow=classic;endFill=1;" parent="dNxyNK7c78bLwvsdeMH5-19" edge="1">
          <mxGeometry relative="1" as="geometry">
            <mxPoint x="300" y="160" as="sourcePoint" />
            <mxPoint x="300" y="90" as="targetPoint" />
          </mxGeometry>
        </mxCell>
        <mxCell id="dNxyNK7c78bLwvsdeMH5-35" style="edgeStyle=orthogonalEdgeStyle;rounded=0;orthogonalLoop=1;jettySize=auto;html=1;endArrow=classic;endFill=1;" parent="dNxyNK7c78bLwvsdeMH5-19" edge="1">
          <mxGeometry relative="1" as="geometry">
            <mxPoint x="300" y="200" as="sourcePoint" />
            <mxPoint x="300" y="260" as="targetPoint" />
          </mxGeometry>
        </mxCell>
        <mxCell id="dNxyNK7c78bLwvsdeMH5-38" style="edgeStyle=orthogonalEdgeStyle;rounded=0;orthogonalLoop=1;jettySize=auto;html=1;endArrow=classic;endFill=1;" parent="dNxyNK7c78bLwvsdeMH5-19" edge="1">
          <mxGeometry relative="1" as="geometry">
            <Array as="points">
              <mxPoint x="180" y="340" />
              <mxPoint x="400" y="340" />
            </Array>
            <mxPoint x="180" y="210" as="sourcePoint" />
            <mxPoint x="400" y="310" as="targetPoint" />
          </mxGeometry>
        </mxCell>
        <mxCell id="dNxyNK7c78bLwvsdeMH5-20" value="Corporate Office" style="swimlane;html=1;startSize=20;horizontal=0;swimlaneFillColor=default;fillColor=#e1d5e7;strokeColor=#FF8000;" parent="dNxyNK7c78bLwvsdeMH5-19" vertex="1">
          <mxGeometry x="20" width="700" height="120" as="geometry" />
        </mxCell>
        <mxCell id="D5mxx9dGodabLMfK_8rq-20" value="" style="endArrow=classic;html=1;rounded=0;" parent="dNxyNK7c78bLwvsdeMH5-20" edge="1">
          <mxGeometry width="50" height="50" relative="1" as="geometry">
            <mxPoint x="80" y="100" as="sourcePoint" />
            <mxPoint x="80" y="140" as="targetPoint" />
          </mxGeometry>
        </mxCell>
        <mxCell id="D5mxx9dGodabLMfK_8rq-25" value="Orders received from customers via phone" style="ellipse;whiteSpace=wrap;html=1;" parent="dNxyNK7c78bLwvsdeMH5-20" vertex="1">
          <mxGeometry x="30" y="20" width="120" height="80" as="geometry" />
        </mxCell>
        <mxCell id="D5mxx9dGodabLMfK_8rq-45" value="Receive message that order has been shipped" style="ellipse;whiteSpace=wrap;html=1;" parent="dNxyNK7c78bLwvsdeMH5-20" vertex="1">
          <mxGeometry x="480" y="20" width="120" height="80" as="geometry" />
        </mxCell>
        <mxCell id="D5mxx9dGodabLMfK_8rq-50" value="" style="endArrow=none;html=1;rounded=0;" parent="dNxyNK7c78bLwvsdeMH5-20" edge="1">
          <mxGeometry width="50" height="50" relative="1" as="geometry">
            <mxPoint x="650" y="120" as="sourcePoint" />
            <mxPoint x="650" y="60" as="targetPoint" />
          </mxGeometry>
        </mxCell>
        <mxCell id="D5mxx9dGodabLMfK_8rq-51" value="" style="endArrow=classic;html=1;rounded=0;entryX=1;entryY=0.5;entryDx=0;entryDy=0;" parent="dNxyNK7c78bLwvsdeMH5-20" target="D5mxx9dGodabLMfK_8rq-45" edge="1">
          <mxGeometry width="50" height="50" relative="1" as="geometry">
            <mxPoint x="650" y="60" as="sourcePoint" />
            <mxPoint x="700" y="10" as="targetPoint" />
          </mxGeometry>
        </mxCell>
        <mxCell id="D5mxx9dGodabLMfK_8rq-62" value="" style="endArrow=classic;html=1;rounded=0;entryX=0.25;entryY=1;entryDx=0;entryDy=0;entryPerimeter=0;" parent="dNxyNK7c78bLwvsdeMH5-20" target="D5mxx9dGodabLMfK_8rq-25" edge="1">
          <mxGeometry width="50" height="50" relative="1" as="geometry">
            <mxPoint x="30" y="120" as="sourcePoint" />
            <mxPoint x="80" y="70" as="targetPoint" />
          </mxGeometry>
        </mxCell>
        <mxCell id="P_pBXZwlxkU0gONkOkQJ-1" value="" style="endArrow=classic;html=1;rounded=0;fillColor=#fa6800;strokeColor=#C73500;" parent="dNxyNK7c78bLwvsdeMH5-20" edge="1">
          <mxGeometry width="50" height="50" relative="1" as="geometry">
            <mxPoint x="200" y="90" as="sourcePoint" />
            <mxPoint x="90" y="110" as="targetPoint" />
          </mxGeometry>
        </mxCell>
        <mxCell id="P_pBXZwlxkU0gONkOkQJ-2" value="&lt;font data-darkreader-inline-color=&quot;&quot; style=&quot;--darkreader-inline-color: #ff9200;&quot; color=&quot;#ff8000&quot;&gt;Manual Processes that invite order delays and other clerical errors&lt;br&gt;&lt;/font&gt;" style="text;html=1;align=center;verticalAlign=middle;whiteSpace=wrap;rounded=0;" parent="dNxyNK7c78bLwvsdeMH5-20" vertex="1">
          <mxGeometry x="170" y="60" width="170" height="30" as="geometry" />
        </mxCell>
        <mxCell id="P_pBXZwlxkU0gONkOkQJ-3" value="" style="endArrow=none;html=1;rounded=0;fillColor=#fa6800;strokeColor=#C73500;" parent="dNxyNK7c78bLwvsdeMH5-20" edge="1">
          <mxGeometry width="50" height="50" relative="1" as="geometry">
            <mxPoint x="200" y="150" as="sourcePoint" />
            <mxPoint x="250" y="100" as="targetPoint" />
          </mxGeometry>
        </mxCell>
        <mxCell id="P_pBXZwlxkU0gONkOkQJ-5" value="" style="endArrow=none;html=1;rounded=0;fillColor=#fa6800;strokeColor=#C73500;" parent="dNxyNK7c78bLwvsdeMH5-20" edge="1">
          <mxGeometry width="50" height="50" relative="1" as="geometry">
            <mxPoint x="350" y="80" as="sourcePoint" />
            <mxPoint x="420" y="160" as="targetPoint" />
            <Array as="points">
              <mxPoint x="380" y="120" />
            </Array>
          </mxGeometry>
        </mxCell>
        <mxCell id="P_pBXZwlxkU0gONkOkQJ-8" value="" style="endArrow=classic;html=1;rounded=0;fillColor=#fa6800;strokeColor=#C73500;" parent="dNxyNK7c78bLwvsdeMH5-20" edge="1">
          <mxGeometry width="50" height="50" relative="1" as="geometry">
            <mxPoint x="170" y="60" as="sourcePoint" />
            <mxPoint x="150" y="60" as="targetPoint" />
          </mxGeometry>
        </mxCell>
        <mxCell id="dNxyNK7c78bLwvsdeMH5-21" value="Order Clerk" style="swimlane;html=1;startSize=20;horizontal=0;swimlaneFillColor=default;fillColor=#e1d5e7;strokeColor=#9673a6;" parent="dNxyNK7c78bLwvsdeMH5-19" vertex="1">
          <mxGeometry x="20" y="120" width="700" height="120" as="geometry" />
        </mxCell>
        <mxCell id="D5mxx9dGodabLMfK_8rq-12" value="Fax machine check every 2 hours by order clerk" style="rounded=1;whiteSpace=wrap;html=1;" parent="dNxyNK7c78bLwvsdeMH5-21" vertex="1">
          <mxGeometry x="40" y="30" width="110" height="60" as="geometry" />
        </mxCell>
        <mxCell id="D5mxx9dGodabLMfK_8rq-13" value="Verify order information" style="rounded=1;whiteSpace=wrap;html=1;" parent="dNxyNK7c78bLwvsdeMH5-21" vertex="1">
          <mxGeometry x="250" y="30" width="120" height="60" as="geometry" />
        </mxCell>
        <mxCell id="D5mxx9dGodabLMfK_8rq-14" value="Once information is validated send to materials dept" style="rounded=1;whiteSpace=wrap;html=1;" parent="dNxyNK7c78bLwvsdeMH5-21" vertex="1">
          <mxGeometry x="480" y="30" width="120" height="60" as="geometry" />
        </mxCell>
        <mxCell id="D5mxx9dGodabLMfK_8rq-21" value="" style="endArrow=classic;html=1;rounded=0;" parent="dNxyNK7c78bLwvsdeMH5-21" edge="1">
          <mxGeometry width="50" height="50" relative="1" as="geometry">
            <mxPoint x="80" as="sourcePoint" />
            <mxPoint x="80" y="30" as="targetPoint" />
          </mxGeometry>
        </mxCell>
        <mxCell id="D5mxx9dGodabLMfK_8rq-22" value="" style="endArrow=classic;html=1;rounded=0;exitX=1;exitY=0.5;exitDx=0;exitDy=0;" parent="dNxyNK7c78bLwvsdeMH5-21" source="D5mxx9dGodabLMfK_8rq-12" edge="1">
          <mxGeometry width="50" height="50" relative="1" as="geometry">
            <mxPoint x="170" y="80" as="sourcePoint" />
            <mxPoint x="250" y="60" as="targetPoint" />
          </mxGeometry>
        </mxCell>
        <mxCell id="D5mxx9dGodabLMfK_8rq-23" value="" style="endArrow=classic;html=1;rounded=0;entryX=0;entryY=0.5;entryDx=0;entryDy=0;exitX=1;exitY=0.5;exitDx=0;exitDy=0;" parent="dNxyNK7c78bLwvsdeMH5-21" source="D5mxx9dGodabLMfK_8rq-13" target="D5mxx9dGodabLMfK_8rq-14" edge="1">
          <mxGeometry width="50" height="50" relative="1" as="geometry">
            <mxPoint x="400" y="90" as="sourcePoint" />
            <mxPoint x="450" y="40" as="targetPoint" />
          </mxGeometry>
        </mxCell>
        <mxCell id="D5mxx9dGodabLMfK_8rq-27" value="" style="endArrow=none;html=1;rounded=0;" parent="dNxyNK7c78bLwvsdeMH5-21" edge="1">
          <mxGeometry width="50" height="50" relative="1" as="geometry">
            <mxPoint x="550" y="110" as="sourcePoint" />
            <mxPoint x="550" y="90" as="targetPoint" />
          </mxGeometry>
        </mxCell>
        <mxCell id="D5mxx9dGodabLMfK_8rq-28" value="" style="endArrow=none;html=1;rounded=0;" parent="dNxyNK7c78bLwvsdeMH5-21" edge="1">
          <mxGeometry width="50" height="50" relative="1" as="geometry">
            <mxPoint x="60" y="110" as="sourcePoint" />
            <mxPoint x="550" y="110" as="targetPoint" />
          </mxGeometry>
        </mxCell>
        <mxCell id="D5mxx9dGodabLMfK_8rq-30" value="" style="endArrow=classic;html=1;rounded=0;entryX=0.417;entryY=0.125;entryDx=0;entryDy=0;entryPerimeter=0;" parent="dNxyNK7c78bLwvsdeMH5-21" target="D5mxx9dGodabLMfK_8rq-16" edge="1">
          <mxGeometry width="50" height="50" relative="1" as="geometry">
            <mxPoint x="80" y="120" as="sourcePoint" />
            <mxPoint x="130" y="70" as="targetPoint" />
          </mxGeometry>
        </mxCell>
        <mxCell id="D5mxx9dGodabLMfK_8rq-49" value="" style="endArrow=none;html=1;rounded=0;" parent="dNxyNK7c78bLwvsdeMH5-21" edge="1">
          <mxGeometry width="50" height="50" relative="1" as="geometry">
            <mxPoint x="650" y="120" as="sourcePoint" />
            <mxPoint x="650" as="targetPoint" />
          </mxGeometry>
        </mxCell>
        <mxCell id="D5mxx9dGodabLMfK_8rq-61" value="" style="endArrow=none;html=1;rounded=0;" parent="dNxyNK7c78bLwvsdeMH5-21" edge="1">
          <mxGeometry width="50" height="50" relative="1" as="geometry">
            <mxPoint x="30" y="120" as="sourcePoint" />
            <mxPoint x="30" as="targetPoint" />
          </mxGeometry>
        </mxCell>
        <mxCell id="P_pBXZwlxkU0gONkOkQJ-4" value="" style="endArrow=classic;html=1;rounded=0;fillColor=#fa6800;strokeColor=#C73500;" parent="dNxyNK7c78bLwvsdeMH5-21" edge="1">
          <mxGeometry width="50" height="50" relative="1" as="geometry">
            <mxPoint x="230" as="sourcePoint" />
            <mxPoint x="190" y="40" as="targetPoint" />
          </mxGeometry>
        </mxCell>
        <mxCell id="P_pBXZwlxkU0gONkOkQJ-6" value="" style="endArrow=classic;html=1;rounded=0;fillColor=#fa6800;strokeColor=#C73500;" parent="dNxyNK7c78bLwvsdeMH5-21" edge="1">
          <mxGeometry width="50" height="50" relative="1" as="geometry">
            <mxPoint x="380" as="sourcePoint" />
            <mxPoint x="420" y="50" as="targetPoint" />
          </mxGeometry>
        </mxCell>
        <mxCell id="dNxyNK7c78bLwvsdeMH5-22" value="Materials Dept" style="swimlane;html=1;startSize=20;horizontal=0;swimlaneFillColor=default;fillColor=#e1d5e7;strokeColor=#9673a6;" parent="dNxyNK7c78bLwvsdeMH5-19" vertex="1">
          <mxGeometry x="20" y="240" width="700" height="120" as="geometry" />
        </mxCell>
        <mxCell id="D5mxx9dGodabLMfK_8rq-16" value="Check inventory" style="ellipse;whiteSpace=wrap;html=1;" parent="dNxyNK7c78bLwvsdeMH5-22" vertex="1">
          <mxGeometry x="40" y="20" width="110" height="80" as="geometry" />
        </mxCell>
        <mxCell id="D5mxx9dGodabLMfK_8rq-18" value="Order is picked and packaged" style="ellipse;whiteSpace=wrap;html=1;" parent="dNxyNK7c78bLwvsdeMH5-22" vertex="1">
          <mxGeometry x="250" y="20" width="120" height="80" as="geometry" />
        </mxCell>
        <mxCell id="D5mxx9dGodabLMfK_8rq-19" value="Order is passed to shipping dept" style="ellipse;whiteSpace=wrap;html=1;" parent="dNxyNK7c78bLwvsdeMH5-22" vertex="1">
          <mxGeometry x="480" y="20" width="120" height="80" as="geometry" />
        </mxCell>
        <mxCell id="D5mxx9dGodabLMfK_8rq-32" value="" style="endArrow=classic;html=1;rounded=0;exitX=1;exitY=0.5;exitDx=0;exitDy=0;entryX=0;entryY=0.5;entryDx=0;entryDy=0;" parent="dNxyNK7c78bLwvsdeMH5-22" source="D5mxx9dGodabLMfK_8rq-16" target="D5mxx9dGodabLMfK_8rq-18" edge="1">
          <mxGeometry width="50" height="50" relative="1" as="geometry">
            <mxPoint x="170" y="80" as="sourcePoint" />
            <mxPoint x="220" y="30" as="targetPoint" />
          </mxGeometry>
        </mxCell>
        <mxCell id="D5mxx9dGodabLMfK_8rq-33" value="" style="endArrow=classic;html=1;rounded=0;" parent="dNxyNK7c78bLwvsdeMH5-22" edge="1">
          <mxGeometry width="50" height="50" relative="1" as="geometry">
            <mxPoint x="370" y="60" as="sourcePoint" />
            <mxPoint x="480" y="60" as="targetPoint" />
          </mxGeometry>
        </mxCell>
        <mxCell id="D5mxx9dGodabLMfK_8rq-37" value="" style="endArrow=none;html=1;rounded=0;" parent="dNxyNK7c78bLwvsdeMH5-22" edge="1">
          <mxGeometry width="50" height="50" relative="1" as="geometry">
            <mxPoint x="90" y="150" as="sourcePoint" />
            <mxPoint x="90" y="130" as="targetPoint" />
          </mxGeometry>
        </mxCell>
        <mxCell id="D5mxx9dGodabLMfK_8rq-43" value="" style="endArrow=none;html=1;rounded=0;" parent="dNxyNK7c78bLwvsdeMH5-22" edge="1">
          <mxGeometry width="50" height="50" relative="1" as="geometry">
            <mxPoint x="60" y="150" as="sourcePoint" />
            <mxPoint x="60" y="110" as="targetPoint" />
          </mxGeometry>
        </mxCell>
        <mxCell id="D5mxx9dGodabLMfK_8rq-48" value="" style="endArrow=none;html=1;rounded=0;" parent="dNxyNK7c78bLwvsdeMH5-22" edge="1">
          <mxGeometry width="50" height="50" relative="1" as="geometry">
            <mxPoint x="650" y="120" as="sourcePoint" />
            <mxPoint x="650" as="targetPoint" />
          </mxGeometry>
        </mxCell>
        <mxCell id="D5mxx9dGodabLMfK_8rq-60" value="" style="endArrow=none;html=1;rounded=0;" parent="dNxyNK7c78bLwvsdeMH5-22" edge="1">
          <mxGeometry width="50" height="50" relative="1" as="geometry">
            <mxPoint x="30" y="120" as="sourcePoint" />
            <mxPoint x="30" as="targetPoint" />
          </mxGeometry>
        </mxCell>
        <mxCell id="7cb6kZuDYvDQJw3Y1VFz-7" value="" style="endArrow=none;html=1;rounded=0;" parent="dNxyNK7c78bLwvsdeMH5-22" edge="1">
          <mxGeometry width="50" height="50" relative="1" as="geometry">
            <mxPoint x="60" y="110" as="sourcePoint" />
            <mxPoint x="540" y="110" as="targetPoint" />
          </mxGeometry>
        </mxCell>
        <mxCell id="7cb6kZuDYvDQJw3Y1VFz-8" value="" style="endArrow=none;html=1;rounded=0;entryX=0.5;entryY=1;entryDx=0;entryDy=0;" parent="dNxyNK7c78bLwvsdeMH5-22" target="D5mxx9dGodabLMfK_8rq-19" edge="1">
          <mxGeometry width="50" height="50" relative="1" as="geometry">
            <mxPoint x="540" y="110" as="sourcePoint" />
            <mxPoint x="470" y="30" as="targetPoint" />
          </mxGeometry>
        </mxCell>
        <mxCell id="D5mxx9dGodabLMfK_8rq-9" value="Shipping Dept" style="swimlane;html=1;startSize=20;horizontal=0;swimlaneFillColor=default;fillColor=#e1d5e7;strokeColor=#9673a6;" parent="dNxyNK7c78bLwvsdeMH5-19" vertex="1">
          <mxGeometry x="20" y="360" width="700" height="120" as="geometry" />
        </mxCell>
        <mxCell id="D5mxx9dGodabLMfK_8rq-34" value="Order is reviewed" style="rounded=1;whiteSpace=wrap;html=1;" parent="D5mxx9dGodabLMfK_8rq-9" vertex="1">
          <mxGeometry x="40" y="30" width="110" height="50" as="geometry" />
        </mxCell>
        <mxCell id="D5mxx9dGodabLMfK_8rq-35" value="Ship to customer" style="rounded=1;whiteSpace=wrap;html=1;" parent="D5mxx9dGodabLMfK_8rq-9" vertex="1">
          <mxGeometry x="250" y="30" width="120" height="60" as="geometry" />
        </mxCell>
        <mxCell id="D5mxx9dGodabLMfK_8rq-36" value="Notify corporate office that order is shipped" style="rounded=1;whiteSpace=wrap;html=1;" parent="D5mxx9dGodabLMfK_8rq-9" vertex="1">
          <mxGeometry x="480" y="30" width="120" height="60" as="geometry" />
        </mxCell>
        <mxCell id="D5mxx9dGodabLMfK_8rq-40" value="" style="endArrow=none;html=1;rounded=0;" parent="D5mxx9dGodabLMfK_8rq-9" edge="1">
          <mxGeometry width="50" height="50" relative="1" as="geometry">
            <mxPoint x="110" y="10" as="sourcePoint" />
            <mxPoint x="430" y="10" as="targetPoint" />
          </mxGeometry>
        </mxCell>
        <mxCell id="D5mxx9dGodabLMfK_8rq-41" value="" style="endArrow=none;html=1;rounded=0;" parent="D5mxx9dGodabLMfK_8rq-9" edge="1">
          <mxGeometry width="50" height="50" relative="1" as="geometry">
            <mxPoint x="430" y="60" as="sourcePoint" />
            <mxPoint x="430" y="10" as="targetPoint" />
          </mxGeometry>
        </mxCell>
        <mxCell id="D5mxx9dGodabLMfK_8rq-42" value="" style="endArrow=classic;html=1;rounded=0;entryX=0;entryY=0.5;entryDx=0;entryDy=0;" parent="D5mxx9dGodabLMfK_8rq-9" target="D5mxx9dGodabLMfK_8rq-36" edge="1">
          <mxGeometry width="50" height="50" relative="1" as="geometry">
            <mxPoint x="430" y="60" as="sourcePoint" />
            <mxPoint x="470" y="60" as="targetPoint" />
          </mxGeometry>
        </mxCell>
        <mxCell id="D5mxx9dGodabLMfK_8rq-44" value="" style="endArrow=classic;html=1;rounded=0;entryX=0.182;entryY=0.02;entryDx=0;entryDy=0;entryPerimeter=0;" parent="D5mxx9dGodabLMfK_8rq-9" target="D5mxx9dGodabLMfK_8rq-34" edge="1">
          <mxGeometry width="50" height="50" relative="1" as="geometry">
            <mxPoint x="60" as="sourcePoint" />
            <mxPoint x="80" y="30" as="targetPoint" />
          </mxGeometry>
        </mxCell>
        <mxCell id="D5mxx9dGodabLMfK_8rq-46" value="" style="endArrow=none;html=1;rounded=0;" parent="D5mxx9dGodabLMfK_8rq-9" edge="1">
          <mxGeometry width="50" height="50" relative="1" as="geometry">
            <mxPoint x="600" y="60" as="sourcePoint" />
            <mxPoint x="650" y="60" as="targetPoint" />
          </mxGeometry>
        </mxCell>
        <mxCell id="D5mxx9dGodabLMfK_8rq-47" value="" style="endArrow=none;html=1;rounded=0;" parent="D5mxx9dGodabLMfK_8rq-9" edge="1">
          <mxGeometry width="50" height="50" relative="1" as="geometry">
            <mxPoint x="650" y="60" as="sourcePoint" />
            <mxPoint x="650" as="targetPoint" />
          </mxGeometry>
        </mxCell>
        <mxCell id="D5mxx9dGodabLMfK_8rq-52" value="" style="endArrow=classic;html=1;rounded=0;entryX=0;entryY=0.5;entryDx=0;entryDy=0;" parent="D5mxx9dGodabLMfK_8rq-9" target="D5mxx9dGodabLMfK_8rq-35" edge="1">
          <mxGeometry width="50" height="50" relative="1" as="geometry">
            <mxPoint x="150" y="60" as="sourcePoint" />
            <mxPoint x="200" y="10" as="targetPoint" />
          </mxGeometry>
        </mxCell>
        <mxCell id="D5mxx9dGodabLMfK_8rq-59" value="" style="endArrow=none;html=1;rounded=0;" parent="D5mxx9dGodabLMfK_8rq-9" edge="1">
          <mxGeometry width="50" height="50" relative="1" as="geometry">
            <mxPoint x="30" y="120" as="sourcePoint" />
            <mxPoint x="30" as="targetPoint" />
          </mxGeometry>
        </mxCell>
        <mxCell id="D5mxx9dGodabLMfK_8rq-63" value="" style="endArrow=none;html=1;rounded=0;entryX=0.5;entryY=1;entryDx=0;entryDy=0;" parent="D5mxx9dGodabLMfK_8rq-9" target="D5mxx9dGodabLMfK_8rq-35" edge="1">
          <mxGeometry width="50" height="50" relative="1" as="geometry">
            <mxPoint x="310" y="120" as="sourcePoint" />
            <mxPoint x="350" y="60" as="targetPoint" />
          </mxGeometry>
        </mxCell>
        <mxCell id="P_pBXZwlxkU0gONkOkQJ-13" value="" style="endArrow=none;html=1;rounded=0;exitX=0.636;exitY=0;exitDx=0;exitDy=0;exitPerimeter=0;" parent="D5mxx9dGodabLMfK_8rq-9" source="D5mxx9dGodabLMfK_8rq-34" edge="1">
          <mxGeometry width="50" height="50" relative="1" as="geometry">
            <mxPoint x="110" y="20" as="sourcePoint" />
            <mxPoint x="110" y="10" as="targetPoint" />
          </mxGeometry>
        </mxCell>
        <mxCell id="D5mxx9dGodabLMfK_8rq-10" value="Customer" style="swimlane;html=1;startSize=20;horizontal=0;swimlaneFillColor=default;fillColor=#e1d5e7;strokeColor=#9673a6;" parent="dNxyNK7c78bLwvsdeMH5-19" vertex="1">
          <mxGeometry x="20" y="480" width="700" height="120" as="geometry" />
        </mxCell>
        <mxCell id="D5mxx9dGodabLMfK_8rq-53" value="Receive package with order" style="ellipse;whiteSpace=wrap;html=1;" parent="D5mxx9dGodabLMfK_8rq-10" vertex="1">
          <mxGeometry x="380" y="15" width="120" height="80" as="geometry" />
        </mxCell>
        <mxCell id="D5mxx9dGodabLMfK_8rq-55" value="Place order by calling corporate office" style="ellipse;whiteSpace=wrap;html=1;" parent="D5mxx9dGodabLMfK_8rq-10" vertex="1">
          <mxGeometry x="160" y="15" width="120" height="80" as="geometry" />
        </mxCell>
        <mxCell id="D5mxx9dGodabLMfK_8rq-56" value="" style="endArrow=none;html=1;rounded=0;" parent="D5mxx9dGodabLMfK_8rq-10" edge="1">
          <mxGeometry width="50" height="50" relative="1" as="geometry">
            <mxPoint x="30" y="50" as="sourcePoint" />
            <mxPoint x="160" y="50" as="targetPoint" />
          </mxGeometry>
        </mxCell>
        <mxCell id="D5mxx9dGodabLMfK_8rq-57" value="" style="endArrow=none;html=1;rounded=0;" parent="D5mxx9dGodabLMfK_8rq-10" edge="1">
          <mxGeometry width="50" height="50" relative="1" as="geometry">
            <mxPoint x="30" y="50" as="sourcePoint" />
            <mxPoint x="30" as="targetPoint" />
          </mxGeometry>
        </mxCell>
        <mxCell id="D5mxx9dGodabLMfK_8rq-64" value="" style="endArrow=none;html=1;rounded=0;" parent="D5mxx9dGodabLMfK_8rq-10" edge="1">
          <mxGeometry width="50" height="50" relative="1" as="geometry">
            <mxPoint x="310" y="50" as="sourcePoint" />
            <mxPoint x="310" as="targetPoint" />
          </mxGeometry>
        </mxCell>
        <mxCell id="D5mxx9dGodabLMfK_8rq-65" value="" style="endArrow=classic;html=1;rounded=0;" parent="D5mxx9dGodabLMfK_8rq-10" edge="1">
          <mxGeometry width="50" height="50" relative="1" as="geometry">
            <mxPoint x="310" y="50" as="sourcePoint" />
            <mxPoint x="378" y="50" as="targetPoint" />
          </mxGeometry>
        </mxCell>
        <mxCell id="D5mxx9dGodabLMfK_8rq-77" value="TO-BE ABC Company Process" style="swimlane;html=1;childLayout=stackLayout;resizeParent=1;resizeParentMax=0;horizontal=0;startSize=20;horizontalStack=0;fillColor=#008a00;strokeColor=#005700;fontColor=#ffffff;" parent="1" vertex="1">
          <mxGeometry x="60" y="1320" width="720" height="600" as="geometry" />
        </mxCell>
        <mxCell id="D5mxx9dGodabLMfK_8rq-78" value="" style="edgeStyle=orthogonalEdgeStyle;rounded=0;orthogonalLoop=1;jettySize=auto;html=1;dashed=1;endArrow=none;endFill=0;" parent="D5mxx9dGodabLMfK_8rq-77" edge="1">
          <mxGeometry relative="1" as="geometry">
            <mxPoint x="180" y="90" as="sourcePoint" />
            <mxPoint x="180" y="150" as="targetPoint" />
          </mxGeometry>
        </mxCell>
        <mxCell id="D5mxx9dGodabLMfK_8rq-79" style="edgeStyle=orthogonalEdgeStyle;rounded=0;orthogonalLoop=1;jettySize=auto;html=1;endArrow=classic;endFill=1;" parent="D5mxx9dGodabLMfK_8rq-77" edge="1">
          <mxGeometry relative="1" as="geometry">
            <mxPoint x="300" y="160" as="sourcePoint" />
            <mxPoint x="300" y="90" as="targetPoint" />
          </mxGeometry>
        </mxCell>
        <mxCell id="D5mxx9dGodabLMfK_8rq-80" style="edgeStyle=orthogonalEdgeStyle;rounded=0;orthogonalLoop=1;jettySize=auto;html=1;endArrow=classic;endFill=1;" parent="D5mxx9dGodabLMfK_8rq-77" edge="1">
          <mxGeometry relative="1" as="geometry">
            <mxPoint x="300" y="200" as="sourcePoint" />
            <mxPoint x="300" y="260" as="targetPoint" />
          </mxGeometry>
        </mxCell>
        <mxCell id="D5mxx9dGodabLMfK_8rq-81" style="edgeStyle=orthogonalEdgeStyle;rounded=0;orthogonalLoop=1;jettySize=auto;html=1;endArrow=classic;endFill=1;" parent="D5mxx9dGodabLMfK_8rq-77" edge="1">
          <mxGeometry relative="1" as="geometry">
            <Array as="points">
              <mxPoint x="180" y="340" />
              <mxPoint x="400" y="340" />
            </Array>
            <mxPoint x="180" y="210" as="sourcePoint" />
            <mxPoint x="400" y="310" as="targetPoint" />
          </mxGeometry>
        </mxCell>
        <mxCell id="D5mxx9dGodabLMfK_8rq-82" value="Corporate Office" style="swimlane;html=1;startSize=20;horizontal=0;swimlaneFillColor=default;fillColor=#e1d5e7;strokeColor=#9673a6;" parent="D5mxx9dGodabLMfK_8rq-77" vertex="1">
          <mxGeometry x="20" width="700" height="120" as="geometry" />
        </mxCell>
        <mxCell id="D5mxx9dGodabLMfK_8rq-85" value="Receive message that order has been shipped" style="ellipse;whiteSpace=wrap;html=1;" parent="D5mxx9dGodabLMfK_8rq-82" vertex="1">
          <mxGeometry x="480" y="20" width="120" height="80" as="geometry" />
        </mxCell>
        <mxCell id="D5mxx9dGodabLMfK_8rq-86" value="" style="endArrow=none;html=1;rounded=0;" parent="D5mxx9dGodabLMfK_8rq-82" edge="1">
          <mxGeometry width="50" height="50" relative="1" as="geometry">
            <mxPoint x="650" y="120" as="sourcePoint" />
            <mxPoint x="650" y="60" as="targetPoint" />
          </mxGeometry>
        </mxCell>
        <mxCell id="D5mxx9dGodabLMfK_8rq-87" value="" style="endArrow=classic;html=1;rounded=0;entryX=1;entryY=0.5;entryDx=0;entryDy=0;" parent="D5mxx9dGodabLMfK_8rq-82" target="D5mxx9dGodabLMfK_8rq-85" edge="1">
          <mxGeometry width="50" height="50" relative="1" as="geometry">
            <mxPoint x="650" y="60" as="sourcePoint" />
            <mxPoint x="700" y="10" as="targetPoint" />
          </mxGeometry>
        </mxCell>
        <mxCell id="D5mxx9dGodabLMfK_8rq-88" value="" style="endArrow=classic;html=1;rounded=0;entryX=0.25;entryY=1;entryDx=0;entryDy=0;entryPerimeter=0;" parent="D5mxx9dGodabLMfK_8rq-82" edge="1">
          <mxGeometry width="50" height="50" relative="1" as="geometry">
            <mxPoint x="30" y="120" as="sourcePoint" />
            <mxPoint x="85" y="100" as="targetPoint" />
          </mxGeometry>
        </mxCell>
        <mxCell id="P_pBXZwlxkU0gONkOkQJ-9" value="Customer orders received and recorded through input order form software &lt;br/&gt;that has a validation feature for the input fields and sent to order &lt;br/&gt;clerk" style="rounded=1;whiteSpace=wrap;html=1;" parent="D5mxx9dGodabLMfK_8rq-82" vertex="1">
          <mxGeometry x="30" y="20" width="260" height="70" as="geometry" />
        </mxCell>
        <mxCell id="P_pBXZwlxkU0gONkOkQJ-10" value="" style="endArrow=none;html=1;rounded=0;" parent="D5mxx9dGodabLMfK_8rq-82" edge="1">
          <mxGeometry width="50" height="50" relative="1" as="geometry">
            <mxPoint x="140" y="140" as="sourcePoint" />
            <mxPoint x="140" y="90" as="targetPoint" />
          </mxGeometry>
        </mxCell>
        <mxCell id="7cb6kZuDYvDQJw3Y1VFz-5" value="" style="endArrow=classic;html=1;rounded=0;fillColor=#d5e8d4;strokeColor=#82b366;" parent="D5mxx9dGodabLMfK_8rq-82" edge="1">
          <mxGeometry width="50" height="50" relative="1" as="geometry">
            <mxPoint x="320" y="130" as="sourcePoint" />
            <mxPoint x="290" y="100" as="targetPoint" />
          </mxGeometry>
        </mxCell>
        <mxCell id="D5mxx9dGodabLMfK_8rq-89" value="Order Clerk" style="swimlane;html=1;startSize=20;horizontal=0;swimlaneFillColor=default;fillColor=#e1d5e7;strokeColor=#9673a6;" parent="D5mxx9dGodabLMfK_8rq-77" vertex="1">
          <mxGeometry x="20" y="120" width="700" height="120" as="geometry" />
        </mxCell>
        <mxCell id="D5mxx9dGodabLMfK_8rq-90" value="Double check the input order forms in real time and send to materials department" style="rounded=1;whiteSpace=wrap;html=1;" parent="D5mxx9dGodabLMfK_8rq-89" vertex="1">
          <mxGeometry x="40" y="30" width="150" height="60" as="geometry" />
        </mxCell>
        <mxCell id="D5mxx9dGodabLMfK_8rq-99" value="" style="endArrow=classic;html=1;rounded=0;entryX=0.417;entryY=0.125;entryDx=0;entryDy=0;entryPerimeter=0;" parent="D5mxx9dGodabLMfK_8rq-89" target="D5mxx9dGodabLMfK_8rq-103" edge="1">
          <mxGeometry width="50" height="50" relative="1" as="geometry">
            <mxPoint x="80" y="120" as="sourcePoint" />
            <mxPoint x="130" y="70" as="targetPoint" />
          </mxGeometry>
        </mxCell>
        <mxCell id="D5mxx9dGodabLMfK_8rq-100" value="" style="endArrow=none;html=1;rounded=0;" parent="D5mxx9dGodabLMfK_8rq-89" edge="1">
          <mxGeometry width="50" height="50" relative="1" as="geometry">
            <mxPoint x="650" y="120" as="sourcePoint" />
            <mxPoint x="650" as="targetPoint" />
          </mxGeometry>
        </mxCell>
        <mxCell id="D5mxx9dGodabLMfK_8rq-101" value="" style="endArrow=none;html=1;rounded=0;" parent="D5mxx9dGodabLMfK_8rq-89" edge="1">
          <mxGeometry width="50" height="50" relative="1" as="geometry">
            <mxPoint x="30" y="120" as="sourcePoint" />
            <mxPoint x="30" as="targetPoint" />
          </mxGeometry>
        </mxCell>
        <mxCell id="P_pBXZwlxkU0gONkOkQJ-11" value="" style="endArrow=classic;html=1;rounded=0;" parent="D5mxx9dGodabLMfK_8rq-89" edge="1">
          <mxGeometry width="50" height="50" relative="1" as="geometry">
            <mxPoint x="140" as="sourcePoint" />
            <mxPoint x="140" y="30" as="targetPoint" />
          </mxGeometry>
        </mxCell>
        <mxCell id="P_pBXZwlxkU0gONkOkQJ-16" value="" style="endArrow=none;html=1;rounded=0;" parent="D5mxx9dGodabLMfK_8rq-89" edge="1">
          <mxGeometry width="50" height="50" relative="1" as="geometry">
            <mxPoint x="90" y="140" as="sourcePoint" />
            <mxPoint x="90" y="90" as="targetPoint" />
          </mxGeometry>
        </mxCell>
        <mxCell id="7cb6kZuDYvDQJw3Y1VFz-1" value="" style="endArrow=classic;html=1;rounded=0;fillColor=#d5e8d4;strokeColor=#82b366;" parent="D5mxx9dGodabLMfK_8rq-89" edge="1">
          <mxGeometry width="50" height="50" relative="1" as="geometry">
            <mxPoint x="270" y="60" as="sourcePoint" />
            <mxPoint x="200" y="60" as="targetPoint" />
          </mxGeometry>
        </mxCell>
        <mxCell id="7cb6kZuDYvDQJw3Y1VFz-3" value="&lt;font data-darkreader-inline-color=&quot;&quot; style=&quot;--darkreader-inline-color: #a3f278;&quot; color=&quot;#97d077&quot;&gt;Components of the process that yield higher accuracy in order detail capture and transfer through implemented software&lt;/font&gt;" style="text;html=1;align=center;verticalAlign=middle;whiteSpace=wrap;rounded=0;" parent="D5mxx9dGodabLMfK_8rq-89" vertex="1">
          <mxGeometry x="270" y="50" width="170" height="30" as="geometry" />
        </mxCell>
        <mxCell id="7cb6kZuDYvDQJw3Y1VFz-6" value="" style="endArrow=none;html=1;rounded=0;fillColor=#d5e8d4;strokeColor=#82b366;" parent="D5mxx9dGodabLMfK_8rq-89" edge="1">
          <mxGeometry width="50" height="50" relative="1" as="geometry">
            <mxPoint x="330" y="20" as="sourcePoint" />
            <mxPoint x="310" as="targetPoint" />
          </mxGeometry>
        </mxCell>
        <mxCell id="D5mxx9dGodabLMfK_8rq-102" value="Materials Dept" style="swimlane;html=1;startSize=20;horizontal=0;swimlaneFillColor=default;fillColor=#e1d5e7;strokeColor=#9673a6;" parent="D5mxx9dGodabLMfK_8rq-77" vertex="1">
          <mxGeometry x="20" y="240" width="700" height="120" as="geometry" />
        </mxCell>
        <mxCell id="D5mxx9dGodabLMfK_8rq-103" value="Check inventory" style="ellipse;whiteSpace=wrap;html=1;" parent="D5mxx9dGodabLMfK_8rq-102" vertex="1">
          <mxGeometry x="40" y="20" width="110" height="70" as="geometry" />
        </mxCell>
        <mxCell id="D5mxx9dGodabLMfK_8rq-104" value="Order is picked and packaged" style="ellipse;whiteSpace=wrap;html=1;" parent="D5mxx9dGodabLMfK_8rq-102" vertex="1">
          <mxGeometry x="250" y="20" width="120" height="80" as="geometry" />
        </mxCell>
        <mxCell id="D5mxx9dGodabLMfK_8rq-105" value="Order is passed to shipping dept" style="ellipse;whiteSpace=wrap;html=1;" parent="D5mxx9dGodabLMfK_8rq-102" vertex="1">
          <mxGeometry x="480" y="20" width="120" height="80" as="geometry" />
        </mxCell>
        <mxCell id="D5mxx9dGodabLMfK_8rq-107" value="" style="endArrow=classic;html=1;rounded=0;exitX=1;exitY=0.5;exitDx=0;exitDy=0;" parent="D5mxx9dGodabLMfK_8rq-102" source="D5mxx9dGodabLMfK_8rq-103" edge="1">
          <mxGeometry width="50" height="50" relative="1" as="geometry">
            <mxPoint x="170" y="80" as="sourcePoint" />
            <mxPoint x="250" y="55" as="targetPoint" />
          </mxGeometry>
        </mxCell>
        <mxCell id="D5mxx9dGodabLMfK_8rq-108" value="" style="endArrow=classic;html=1;rounded=0;" parent="D5mxx9dGodabLMfK_8rq-102" edge="1">
          <mxGeometry width="50" height="50" relative="1" as="geometry">
            <mxPoint x="370" y="60" as="sourcePoint" />
            <mxPoint x="480" y="60" as="targetPoint" />
          </mxGeometry>
        </mxCell>
        <mxCell id="D5mxx9dGodabLMfK_8rq-109" value="" style="endArrow=none;html=1;rounded=0;" parent="D5mxx9dGodabLMfK_8rq-102" edge="1">
          <mxGeometry width="50" height="50" relative="1" as="geometry">
            <mxPoint x="90" y="150" as="sourcePoint" />
            <mxPoint x="90" y="130" as="targetPoint" />
          </mxGeometry>
        </mxCell>
        <mxCell id="D5mxx9dGodabLMfK_8rq-110" value="" style="endArrow=none;html=1;rounded=0;" parent="D5mxx9dGodabLMfK_8rq-102" edge="1">
          <mxGeometry width="50" height="50" relative="1" as="geometry">
            <mxPoint x="70" y="150" as="sourcePoint" />
            <mxPoint x="70" y="110" as="targetPoint" />
          </mxGeometry>
        </mxCell>
        <mxCell id="D5mxx9dGodabLMfK_8rq-111" value="" style="endArrow=none;html=1;rounded=0;" parent="D5mxx9dGodabLMfK_8rq-102" edge="1">
          <mxGeometry width="50" height="50" relative="1" as="geometry">
            <mxPoint x="650" y="120" as="sourcePoint" />
            <mxPoint x="650" as="targetPoint" />
          </mxGeometry>
        </mxCell>
        <mxCell id="D5mxx9dGodabLMfK_8rq-112" value="" style="endArrow=none;html=1;rounded=0;" parent="D5mxx9dGodabLMfK_8rq-102" edge="1">
          <mxGeometry width="50" height="50" relative="1" as="geometry">
            <mxPoint x="30" y="120" as="sourcePoint" />
            <mxPoint x="30" as="targetPoint" />
          </mxGeometry>
        </mxCell>
        <mxCell id="P_pBXZwlxkU0gONkOkQJ-18" value="" style="endArrow=classic;html=1;rounded=0;" parent="D5mxx9dGodabLMfK_8rq-102" edge="1">
          <mxGeometry width="50" height="50" relative="1" as="geometry">
            <mxPoint x="90" as="sourcePoint" />
            <mxPoint x="90" y="20" as="targetPoint" />
          </mxGeometry>
        </mxCell>
        <mxCell id="7cb6kZuDYvDQJw3Y1VFz-9" value="" style="endArrow=none;html=1;rounded=0;" parent="D5mxx9dGodabLMfK_8rq-102" edge="1">
          <mxGeometry width="50" height="50" relative="1" as="geometry">
            <mxPoint x="70" y="110" as="sourcePoint" />
            <mxPoint x="540" y="110" as="targetPoint" />
          </mxGeometry>
        </mxCell>
        <mxCell id="7cb6kZuDYvDQJw3Y1VFz-10" value="" style="endArrow=none;html=1;rounded=0;entryX=0.5;entryY=1;entryDx=0;entryDy=0;" parent="D5mxx9dGodabLMfK_8rq-102" target="D5mxx9dGodabLMfK_8rq-105" edge="1">
          <mxGeometry width="50" height="50" relative="1" as="geometry">
            <mxPoint x="540" y="110" as="sourcePoint" />
            <mxPoint x="590" y="60" as="targetPoint" />
          </mxGeometry>
        </mxCell>
        <mxCell id="D5mxx9dGodabLMfK_8rq-113" value="Shipping Dept" style="swimlane;html=1;startSize=20;horizontal=0;swimlaneFillColor=default;fillColor=#e1d5e7;strokeColor=#9673a6;" parent="D5mxx9dGodabLMfK_8rq-77" vertex="1">
          <mxGeometry x="20" y="360" width="700" height="120" as="geometry" />
        </mxCell>
        <mxCell id="D5mxx9dGodabLMfK_8rq-114" value="Order is reviewed" style="rounded=1;whiteSpace=wrap;html=1;" parent="D5mxx9dGodabLMfK_8rq-113" vertex="1">
          <mxGeometry x="40" y="30" width="110" height="50" as="geometry" />
        </mxCell>
        <mxCell id="D5mxx9dGodabLMfK_8rq-115" value="Ship to customer" style="rounded=1;whiteSpace=wrap;html=1;" parent="D5mxx9dGodabLMfK_8rq-113" vertex="1">
          <mxGeometry x="250" y="30" width="120" height="60" as="geometry" />
        </mxCell>
        <mxCell id="D5mxx9dGodabLMfK_8rq-116" value="Notify corporate office that order is shipped" style="rounded=1;whiteSpace=wrap;html=1;" parent="D5mxx9dGodabLMfK_8rq-113" vertex="1">
          <mxGeometry x="480" y="30" width="120" height="60" as="geometry" />
        </mxCell>
        <mxCell id="D5mxx9dGodabLMfK_8rq-118" value="" style="endArrow=none;html=1;rounded=0;" parent="D5mxx9dGodabLMfK_8rq-113" edge="1">
          <mxGeometry width="50" height="50" relative="1" as="geometry">
            <mxPoint x="130" y="10" as="sourcePoint" />
            <mxPoint x="430" y="10" as="targetPoint" />
          </mxGeometry>
        </mxCell>
        <mxCell id="D5mxx9dGodabLMfK_8rq-119" value="" style="endArrow=none;html=1;rounded=0;" parent="D5mxx9dGodabLMfK_8rq-113" edge="1">
          <mxGeometry width="50" height="50" relative="1" as="geometry">
            <mxPoint x="430" y="60" as="sourcePoint" />
            <mxPoint x="430" y="10" as="targetPoint" />
          </mxGeometry>
        </mxCell>
        <mxCell id="D5mxx9dGodabLMfK_8rq-120" value="" style="endArrow=classic;html=1;rounded=0;entryX=0;entryY=0.5;entryDx=0;entryDy=0;" parent="D5mxx9dGodabLMfK_8rq-113" target="D5mxx9dGodabLMfK_8rq-116" edge="1">
          <mxGeometry width="50" height="50" relative="1" as="geometry">
            <mxPoint x="430" y="60" as="sourcePoint" />
            <mxPoint x="470" y="60" as="targetPoint" />
          </mxGeometry>
        </mxCell>
        <mxCell id="D5mxx9dGodabLMfK_8rq-122" value="" style="endArrow=none;html=1;rounded=0;" parent="D5mxx9dGodabLMfK_8rq-113" edge="1">
          <mxGeometry width="50" height="50" relative="1" as="geometry">
            <mxPoint x="600" y="60" as="sourcePoint" />
            <mxPoint x="650" y="60" as="targetPoint" />
          </mxGeometry>
        </mxCell>
        <mxCell id="D5mxx9dGodabLMfK_8rq-123" value="" style="endArrow=none;html=1;rounded=0;" parent="D5mxx9dGodabLMfK_8rq-113" edge="1">
          <mxGeometry width="50" height="50" relative="1" as="geometry">
            <mxPoint x="650" y="60" as="sourcePoint" />
            <mxPoint x="650" as="targetPoint" />
          </mxGeometry>
        </mxCell>
        <mxCell id="D5mxx9dGodabLMfK_8rq-124" value="" style="endArrow=classic;html=1;rounded=0;entryX=0;entryY=0.5;entryDx=0;entryDy=0;" parent="D5mxx9dGodabLMfK_8rq-113" target="D5mxx9dGodabLMfK_8rq-115" edge="1">
          <mxGeometry width="50" height="50" relative="1" as="geometry">
            <mxPoint x="150" y="60" as="sourcePoint" />
            <mxPoint x="200" y="10" as="targetPoint" />
          </mxGeometry>
        </mxCell>
        <mxCell id="D5mxx9dGodabLMfK_8rq-125" value="" style="endArrow=none;html=1;rounded=0;" parent="D5mxx9dGodabLMfK_8rq-113" edge="1">
          <mxGeometry width="50" height="50" relative="1" as="geometry">
            <mxPoint x="30" y="120" as="sourcePoint" />
            <mxPoint x="30" as="targetPoint" />
          </mxGeometry>
        </mxCell>
        <mxCell id="D5mxx9dGodabLMfK_8rq-126" value="" style="endArrow=none;html=1;rounded=0;entryX=0.5;entryY=1;entryDx=0;entryDy=0;" parent="D5mxx9dGodabLMfK_8rq-113" target="D5mxx9dGodabLMfK_8rq-115" edge="1">
          <mxGeometry width="50" height="50" relative="1" as="geometry">
            <mxPoint x="310" y="120" as="sourcePoint" />
            <mxPoint x="350" y="60" as="targetPoint" />
          </mxGeometry>
        </mxCell>
        <mxCell id="P_pBXZwlxkU0gONkOkQJ-19" value="" style="endArrow=classic;html=1;rounded=0;" parent="D5mxx9dGodabLMfK_8rq-113" edge="1">
          <mxGeometry width="50" height="50" relative="1" as="geometry">
            <mxPoint x="70" as="sourcePoint" />
            <mxPoint x="70" y="30" as="targetPoint" />
          </mxGeometry>
        </mxCell>
        <mxCell id="P_pBXZwlxkU0gONkOkQJ-21" value="" style="endArrow=none;html=1;rounded=0;" parent="D5mxx9dGodabLMfK_8rq-113" edge="1">
          <mxGeometry width="50" height="50" relative="1" as="geometry">
            <mxPoint x="130" y="30" as="sourcePoint" />
            <mxPoint x="130" y="10" as="targetPoint" />
          </mxGeometry>
        </mxCell>
        <mxCell id="D5mxx9dGodabLMfK_8rq-127" value="Customer" style="swimlane;html=1;startSize=20;horizontal=0;swimlaneFillColor=default;fillColor=#e1d5e7;strokeColor=#9673a6;" parent="D5mxx9dGodabLMfK_8rq-77" vertex="1">
          <mxGeometry x="20" y="480" width="700" height="120" as="geometry" />
        </mxCell>
        <mxCell id="D5mxx9dGodabLMfK_8rq-128" value="Receive package with order" style="ellipse;whiteSpace=wrap;html=1;" parent="D5mxx9dGodabLMfK_8rq-127" vertex="1">
          <mxGeometry x="380" y="15" width="120" height="80" as="geometry" />
        </mxCell>
        <mxCell id="D5mxx9dGodabLMfK_8rq-129" value="Place order by calling corporate office" style="ellipse;whiteSpace=wrap;html=1;" parent="D5mxx9dGodabLMfK_8rq-127" vertex="1">
          <mxGeometry x="160" y="15" width="120" height="80" as="geometry" />
        </mxCell>
        <mxCell id="D5mxx9dGodabLMfK_8rq-130" value="" style="endArrow=none;html=1;rounded=0;" parent="D5mxx9dGodabLMfK_8rq-127" edge="1">
          <mxGeometry width="50" height="50" relative="1" as="geometry">
            <mxPoint x="30" y="50" as="sourcePoint" />
            <mxPoint x="160" y="50" as="targetPoint" />
          </mxGeometry>
        </mxCell>
        <mxCell id="D5mxx9dGodabLMfK_8rq-131" value="" style="endArrow=none;html=1;rounded=0;" parent="D5mxx9dGodabLMfK_8rq-127" edge="1">
          <mxGeometry width="50" height="50" relative="1" as="geometry">
            <mxPoint x="30" y="50" as="sourcePoint" />
            <mxPoint x="30" as="targetPoint" />
          </mxGeometry>
        </mxCell>
        <mxCell id="D5mxx9dGodabLMfK_8rq-132" value="" style="endArrow=none;html=1;rounded=0;" parent="D5mxx9dGodabLMfK_8rq-127" edge="1">
          <mxGeometry width="50" height="50" relative="1" as="geometry">
            <mxPoint x="310" y="50" as="sourcePoint" />
            <mxPoint x="310" as="targetPoint" />
          </mxGeometry>
        </mxCell>
        <mxCell id="D5mxx9dGodabLMfK_8rq-133" value="" style="endArrow=classic;html=1;rounded=0;" parent="D5mxx9dGodabLMfK_8rq-127" edge="1">
          <mxGeometry width="50" height="50" relative="1" as="geometry">
            <mxPoint x="310" y="50" as="sourcePoint" />
            <mxPoint x="378" y="50" as="targetPoint" />
          </mxGeometry>
        </mxCell>
        <mxCell id="P_pBXZwlxkU0gONkOkQJ-15" value="" style="endArrow=classic;html=1;rounded=0;" parent="1" edge="1">
          <mxGeometry width="50" height="50" relative="1" as="geometry">
            <mxPoint x="140" y="390" as="sourcePoint" />
            <mxPoint x="140" y="420" as="targetPoint" />
          </mxGeometry>
        </mxCell>
      </root>
    </mxGraphModel>
  </diagram>
</mxfile>
